<svg xmlns="http://www.w3.org/2000/svg" width="504" height="126" viewBox="0 0 504 126">
<g transform="translate(0 0)" font-family="ui-monospace, SFMono-Regular, Menlo, Consolas, 'DejaVu Sans Mono', 'Liberation Mono', monospace" font-size="15">
<rect x="9" y="9" width="9" height="9" fill="#ff8700"/><rect x="126" y="9" width="9" height="9" fill="#ff8700"/><rect x="18" y="18" width="9" height="18" fill="#d75f00"/>
<rect x="117" y="18" width="9" height="18" fill="#d75f00"/>
<rect x="9" y="18" width="9" height="18" fill="#ff8700"/><rect x="18" y="18" width="9" height="9" fill="#ff8700"/><rect x="27" y="27" width="9" height="9" fill="#ff8700"/><rect x="108" y="27" width="9" height="9" fill="#ff8700"/><rect x="117" y="18" width="9" height="9" fill="#ff8700"/><rect x="126" y="18" width="9" height="18" fill="#ff8700"/><rect x="162" y="27" width="9" height="9" fill="#9ece6a"/><rect x="171" y="18" width="9" height="18" fill="#9ece6a"/><rect x="180" y="18" width="9" height="18" fill="#9ece6a"/><rect x="189" y="18" width="9" height="18" fill="#9ece6a"/><rect x="198" y="18" width="9" height="18" fill="#9ece6a"/><rect x="207" y="18" width="9" height="18" fill="#9ece6a"/><rect x="216" y="18" width="9" height="18" fill="#9ece6a"/><rect x="234" y="27" width="9" height="9" fill="#9ece6a"/><rect x="243" y="18" width="9" height="18" fill="#9ece6a"/><rect x="252" y="18" width="9" height="18" fill="#9ece6a"/><rect x="261" y="18" width="9" height="18" fill="#9ece6a"/><rect x="270" y="18" width="9" height="18" fill="#9ece6a"/><rect x="279" y="18" width="9" height="18" fill="#9ece6a"/><rect x="288" y="18" width="9" height="18" fill="#9ece6a"/><rect x="297" y="27" width="9" height="9" fill="#9ece6a"/><rect x="315" y="27" width="9" height="9" fill="#9ece6a"/><rect x="324" y="18" width="9" height="18" fill="#9ece6a"/><rect x="333" y="18" width="9" height="18" fill="#9ece6a"/><rect x="342" y="18" width="9" height="18" fill="#9ece6a"/><rect x="351" y="18" width="9" height="18" fill="#9ece6a"/><rect x="360" y="18" width="9" height="18" fill="#9ece6a"/><rect x="369" y="18" width="9" height="18" fill="#9ece6a"/><rect x="378" y="18" width="9" height="18" fill="#9ece6a"/><rect x="396" y="27" width="9" height="9" fill="#9ece6a"/><rect x="405" y="18" width="9" height="18" fill="#9ece6a"/><rect x="414" y="18" width="9" height="18" fill="#9ece6a"/><rect x="423" y="18" width="9" height="18" fill="#9ece6a"/><rect x="432" y="18" width="9" height="18" fill="#9ece6a"/><rect x="441" y="18" width="9" height="18" fill="#9ece6a"/><rect x="450" y="18" width="9" height="18" fill="#9ece6a"/><rect x="459" y="27" width="9" height="9" fill="#9ece6a"/><rect x="477" y="27" width="9" height="9" fill="#9ece6a"/><rect x="486" y="18" width="9" height="18" fill="#9ece6a"/><rect x="495" y="18" width="9" height="18" fill="#9ece6a"/><rect x="18" y="36" width="18" height="18" fill="#ff8700"/>
<rect x="108" y="36" width="18" height="18" fill="#ff8700"/>
<rect x="9" y="36" width="9" height="18" fill="#ff8700"/><rect x="18" y="36" width="9" height="9" fill="#d75f00"/><rect x="27" y="36" width="9" height="9" fill="#d75f00"/><rect x="36" y="36" width="9" height="18" fill="#ff8700"/><rect x="45" y="45" width="9" height="9" fill="#ff8700"/><rect x="54" y="45" width="9" height="9" fill="#ff8700"/><rect x="63" y="45" width="9" height="9" fill="#ff8700"/><rect x="72" y="45" width="9" height="9" fill="#ff8700"/><rect x="81" y="45" width="9" height="9" fill="#ff8700"/><rect x="90" y="45" width="9" height="9" fill="#ff8700"/><rect x="99" y="36" width="9" height="18" fill="#ff8700"/><rect x="108" y="36" width="9" height="9" fill="#d75f00"/><rect x="117" y="36" width="9" height="9" fill="#d75f00"/><rect x="126" y="36" width="9" height="18" fill="#ff8700"/><rect x="162" y="36" width="9" height="18" fill="#9ece6a"/><rect x="171" y="36" width="9" height="18" fill="#9ece6a"/><rect x="180" y="36" width="9" height="18" fill="#9ece6a"/><rect x="198" y="36" width="9" height="9" fill="#9ece6a"/><rect x="207" y="36" width="9" height="18" fill="#9ece6a"/><rect x="216" y="36" width="9" height="18" fill="#9ece6a"/><rect x="234" y="36" width="9" height="18" fill="#9ece6a"/><rect x="243" y="36" width="9" height="18" fill="#9ece6a"/><rect x="252" y="36" width="9" height="18" fill="#9ece6a"/><rect x="279" y="36" width="9" height="18" fill="#9ece6a"/><rect x="288" y="36" width="9" height="18" fill="#9ece6a"/><rect x="297" y="36" width="9" height="18" fill="#9ece6a"/><rect x="315" y="36" width="9" height="18" fill="#9ece6a"/><rect x="324" y="36" width="9" height="18" fill="#9ece6a"/><rect x="333" y="36" width="9" height="18" fill="#9ece6a"/><rect x="360" y="36" width="9" height="18" fill="#9ece6a"/><rect x="369" y="36" width="9" height="18" fill="#9ece6a"/><rect x="378" y="36" width="9" height="18" fill="#9ece6a"/><rect x="396" y="36" width="9" height="18" fill="#9ece6a"/><rect x="405" y="36" width="9" height="18" fill="#9ece6a"/><rect x="414" y="36" width="9" height="18" fill="#9ece6a"/><rect x="477" y="36" width="9" height="18" fill="#9ece6a"/><rect x="486" y="36" width="9" height="18" fill="#9ece6a"/><rect x="495" y="36" width="9" height="18" fill="#9ece6a"/><rect x="36" y="54" width="9" height="18" fill="#ffffff"/>
<rect x="99" y="54" width="9" height="18" fill="#ffffff"/>
<rect x="9" y="54" width="9" height="18" fill="#ff8700"/><rect x="18" y="54" width="9" height="18" fill="#ff8700"/><rect x="27" y="54" width="9" height="18" fill="#000000"/><rect x="36" y="54" width="9" height="9" fill="#000000"/><rect x="45" y="54" width="9" height="18" fill="#ff8700"/><rect x="54" y="54" width="9" height="18" fill="#ff8700"/><rect x="63" y="54" width="9" height="18" fill="#eeeeee"/><rect x="72" y="54" width="9" height="18" fill="#eeeeee"/><rect x="81" y="54" width="9" height="18" fill="#ff8700"/><rect x="90" y="54" width="9" height="18" fill="#ff8700"/><rect x="99" y="54" width="9" height="9" fill="#000000"/><rect x="108" y="54" width="9" height="18" fill="#000000"/><rect x="117" y="54" width="9" height="18" fill="#ff8700"/><rect x="126" y="54" width="9" height="18" fill="#ff8700"/><rect x="162" y="54" width="9" height="18" fill="#9ece6a"/><rect x="171" y="54" width="9" height="18" fill="#9ece6a"/><rect x="180" y="54" width="9" height="18" fill="#9ece6a"/><rect x="234" y="54" width="9" height="18" fill="#9ece6a"/><rect x="243" y="54" width="9" height="18" fill="#9ece6a"/><rect x="252" y="54" width="9" height="18" fill="#9ece6a"/><rect x="279" y="54" width="9" height="18" fill="#9ece6a"/><rect x="288" y="54" width="9" height="18" fill="#9ece6a"/><rect x="297" y="54" width="9" height="18" fill="#9ece6a"/><rect x="315" y="54" width="9" height="18" fill="#9ece6a"/><rect x="324" y="54" width="9" height="18" fill="#9ece6a"/><rect x="333" y="54" width="9" height="18" fill="#9ece6a"/><rect x="342" y="63" width="9" height="9" fill="#9ece6a"/><rect x="351" y="63" width="9" height="9" fill="#9ece6a"/><rect x="360" y="54" width="9" height="18" fill="#9ece6a"/><rect x="369" y="54" width="9" height="18" fill="#9ece6a"/><rect x="378" y="54" width="9" height="9" fill="#9ece6a"/><rect x="396" y="54" width="9" height="18" fill="#9ece6a"/><rect x="405" y="54" width="9" height="18" fill="#9ece6a"/><rect x="414" y="54" width="9" height="18" fill="#9ece6a"/><rect x="432" y="54" width="9" height="18" fill="#9ece6a"/><rect x="441" y="54" width="9" height="18" fill="#9ece6a"/><rect x="450" y="54" width="9" height="18" fill="#9ece6a"/><rect x="459" y="54" width="9" height="18" fill="#9ece6a"/><rect x="477" y="54" width="9" height="18" fill="#9ece6a"/><rect x="486" y="54" width="9" height="18" fill="#9ece6a"/><rect x="495" y="54" width="9" height="18" fill="#9ece6a"/><rect x="27" y="72" width="27" height="18" fill="#eeeeee"/>
<rect x="63" y="72" width="18" height="18" fill="#000000"/>
<rect x="90" y="72" width="27" height="18" fill="#eeeeee"/>
<rect x="9" y="72" width="9" height="18" fill="#eeeeee"/><rect x="18" y="72" width="9" height="18" fill="#eeeeee"/><rect x="27" y="72" width="9" height="9" fill="#ff8700"/><rect x="36" y="72" width="9" height="9" fill="#ff8700"/><rect x="45" y="72" width="9" height="9" fill="#ff8700"/><rect x="54" y="72" width="9" height="18" fill="#eeeeee"/><rect x="63" y="72" width="9" height="9" fill="#eeeeee"/><rect x="72" y="72" width="9" height="9" fill="#eeeeee"/><rect x="81" y="72" width="9" height="18" fill="#eeeeee"/><rect x="90" y="72" width="9" height="9" fill="#ff8700"/><rect x="99" y="72" width="9" height="9" fill="#ff8700"/><rect x="108" y="72" width="9" height="9" fill="#ff8700"/><rect x="117" y="72" width="9" height="18" fill="#eeeeee"/><rect x="126" y="72" width="9" height="18" fill="#eeeeee"/><rect x="162" y="72" width="9" height="18" fill="#9ece6a"/><rect x="171" y="72" width="9" height="18" fill="#9ece6a"/><rect x="180" y="72" width="9" height="18" fill="#9ece6a"/><rect x="198" y="81" width="9" height="9" fill="#9ece6a"/><rect x="207" y="72" width="9" height="18" fill="#9ece6a"/><rect x="216" y="72" width="9" height="18" fill="#9ece6a"/><rect x="234" y="72" width="9" height="18" fill="#9ece6a"/><rect x="243" y="72" width="9" height="18" fill="#9ece6a"/><rect x="252" y="72" width="9" height="18" fill="#9ece6a"/><rect x="279" y="72" width="9" height="18" fill="#9ece6a"/><rect x="288" y="72" width="9" height="18" fill="#9ece6a"/><rect x="297" y="72" width="9" height="18" fill="#9ece6a"/><rect x="315" y="72" width="9" height="18" fill="#9ece6a"/><rect x="324" y="72" width="9" height="18" fill="#9ece6a"/><rect x="333" y="72" width="9" height="18" fill="#9ece6a"/><rect x="342" y="72" width="9" height="9" fill="#9ece6a"/><rect x="351" y="72" width="9" height="9" fill="#9ece6a"/><rect x="360" y="72" width="9" height="18" fill="#9ece6a"/><rect x="369" y="72" width="9" height="18" fill="#9ece6a"/><rect x="378" y="81" width="9" height="9" fill="#9ece6a"/><rect x="396" y="72" width="9" height="18" fill="#9ece6a"/><rect x="405" y="72" width="9" height="18" fill="#9ece6a"/><rect x="414" y="72" width="9" height="18" fill="#9ece6a"/><rect x="441" y="72" width="9" height="18" fill="#9ece6a"/><rect x="450" y="72" width="9" height="18" fill="#9ece6a"/><rect x="459" y="72" width="9" height="18" fill="#9ece6a"/><rect x="477" y="72" width="9" height="18" fill="#9ece6a"/><rect x="486" y="72" width="9" height="18" fill="#9ece6a"/><rect x="495" y="72" width="9" height="18" fill="#9ece6a"/><rect x="54" y="90" width="9" height="18" fill="#eeeeee"/>
<rect x="63" y="90" width="18" height="18" fill="#ff8787"/>
<rect x="81" y="90" width="9" height="18" fill="#eeeeee"/>
<rect x="18" y="90" width="9" height="9" fill="#eeeeee"/><rect x="27" y="90" width="9" height="18" fill="#eeeeee"/><rect x="36" y="90" width="9" height="18" fill="#eeeeee"/><rect x="45" y="90" width="9" height="18" fill="#eeeeee"/><rect x="54" y="90" width="9" height="9" fill="#000000"/><rect x="63" y="90" width="9" height="9" fill="#eeeeee"/><rect x="72" y="90" width="9" height="9" fill="#eeeeee"/><rect x="81" y="90" width="9" height="9" fill="#000000"/><rect x="90" y="90" width="9" height="18" fill="#eeeeee"/><rect x="99" y="90" width="9" height="18" fill="#eeeeee"/><rect x="108" y="90" width="9" height="18" fill="#eeeeee"/><rect x="117" y="90" width="9" height="9" fill="#eeeeee"/><rect x="162" y="90" width="9" height="18" fill="#9ece6a"/><rect x="171" y="90" width="9" height="18" fill="#9ece6a"/><rect x="180" y="90" width="9" height="18" fill="#9ece6a"/><rect x="189" y="90" width="9" height="18" fill="#9ece6a"/><rect x="198" y="90" width="9" height="18" fill="#9ece6a"/><rect x="207" y="90" width="9" height="18" fill="#9ece6a"/><rect x="216" y="90" width="9" height="9" fill="#9ece6a"/><rect x="234" y="90" width="9" height="9" fill="#9ece6a"/><rect x="243" y="90" width="9" height="18" fill="#9ece6a"/><rect x="252" y="90" width="9" height="18" fill="#9ece6a"/><rect x="261" y="90" width="9" height="18" fill="#9ece6a"/><rect x="270" y="90" width="9" height="18" fill="#9ece6a"/><rect x="279" y="90" width="9" height="18" fill="#9ece6a"/><rect x="288" y="90" width="9" height="18" fill="#9ece6a"/><rect x="297" y="90" width="9" height="9" fill="#9ece6a"/><rect x="315" y="90" width="9" height="18" fill="#9ece6a"/><rect x="324" y="90" width="9" height="18" fill="#9ece6a"/><rect x="333" y="90" width="9" height="18" fill="#9ece6a"/><rect x="360" y="90" width="9" height="9" fill="#9ece6a"/><rect x="369" y="90" width="9" height="18" fill="#9ece6a"/><rect x="378" y="90" width="9" height="18" fill="#9ece6a"/><rect x="396" y="90" width="9" height="9" fill="#9ece6a"/><rect x="405" y="90" width="9" height="18" fill="#9ece6a"/><rect x="414" y="90" width="9" height="18" fill="#9ece6a"/><rect x="423" y="90" width="9" height="18" fill="#9ece6a"/><rect x="432" y="90" width="9" height="18" fill="#9ece6a"/><rect x="441" y="90" width="9" height="18" fill="#9ece6a"/><rect x="450" y="90" width="9" height="18" fill="#9ece6a"/><rect x="459" y="90" width="9" height="9" fill="#9ece6a"/><rect x="477" y="90" width="9" height="18" fill="#9ece6a"/><rect x="486" y="90" width="9" height="18" fill="#9ece6a"/><rect x="495" y="90" width="9" height="9" fill="#9ece6a"/><rect x="45" y="108" width="9" height="9" fill="#eeeeee"/><rect x="54" y="108" width="9" height="9" fill="#eeeeee"/><rect x="63" y="108" width="9" height="9" fill="#eeeeee"/><rect x="72" y="108" width="9" height="9" fill="#eeeeee"/><rect x="81" y="108" width="9" height="9" fill="#eeeeee"/><rect x="90" y="108" width="9" height="9" fill="#eeeeee"/></g>
</svg>
